<svg width="21" height="21" viewBox="0 0 21 21" fill="none" xmlns="http://www.w3.org/2000/svg">
<path d="M1.16667 21C0.836115 21 0.559226 20.832 0.336004 20.496C0.112782 20.16 0.0007818 19.7446 4.02298e-06 19.25C-0.000773754 18.7553 0.111226 18.34 0.336004 18.004C0.560782 17.668 0.83767 17.5 1.16667 17.5H19.8333C20.1639 17.5 20.4412 17.668 20.6652 18.004C20.8892 18.34 21.0008 18.7553 21 19.25C20.9992 19.7446 20.8872 20.1606 20.664 20.4977C20.4408 20.8349 20.1639 21.0023 19.8333 21H1.16667ZM1.16667 12.25C0.836115 12.25 0.559226 12.082 0.336004 11.746C0.112782 11.41 0.0007818 10.9947 4.02298e-06 10.5C-0.000773754 10.0053 0.111226 9.58999 0.336004 9.25399C0.560782 8.91799 0.83767 8.74999 1.16667 8.74999H19.8333C20.1639 8.74999 20.4412 8.91799 20.6652 9.25399C20.8892 9.58999 21.0008 10.0053 21 10.5C20.9992 10.9947 20.8872 11.4106 20.664 11.7477C20.4408 12.0849 20.1639 12.2523 19.8333 12.25H1.16667ZM1.16667 3.5C0.836115 3.5 0.559226 3.332 0.336004 2.996C0.112782 2.66 0.0007818 2.24466 4.02298e-06 1.75C-0.000773754 1.25533 0.111226 0.839999 0.336004 0.504C0.560782 0.168 0.83767 0 1.16667 0H19.8333C20.1639 0 20.4412 0.168 20.6652 0.504C20.8892 0.839999 21.0008 1.25533 21 1.75C20.9992 2.24466 20.8872 2.66058 20.664 2.99775C20.4408 3.33491 20.1639 3.50233 19.8333 3.5H1.16667Z" fill="white"/>
</svg>
